# xmcd
#
# Track frame offsets:
#	150
#	11171
#	22431
#	37297
#	50613
#	71583
#	81078
#	112168
#	127836
#	142632
#	157409
#	179119
#	191808
#	202263
#	211638
#	224533
#	236055
#	250513
#	265606
#	274033
#	287764
#
# Disc length: 4003 seconds
#
# Revision: 1
# Processed by: cddbd v1.5.2PL0 Copyright (c) Steve Scherf et al.
# Submitted via: audiograbber 1.83.01
#
DISCID=500fa115
DTITLE=Various Artist - Immortal Soul [CD2]
DYEAR=1900
DGENRE=
TTITLE0=Fats Domino - Ain't That A Shame
TTITLE1=Doris Troy - Just One Look
TTITLE2=Sharon Jones - Here I Am Baby
TTITLE3=Mable John - Your Good Thing Is About To End
TTITLE4=Gladys Knight And The Pips - Midnight Train To Georgia
TTITLE5=Bill Withers - Ain't No Sunshine
TTITLE6=Donny Hathaway - The Ghetto
TTITLE7=Harold Melvin And The Blue Notes - If You Don't Know Me By Now
TTITLE8=Issac Hayes - Theme From Shaft
TTITLE9=The Stylistics - Betcha By Golly Wow
TTITLE10=Earth Wind And Fire With The Emotions - Boogie Wonderland
TTITLE11=Johnnie Taylor - Who's Making Love
TTITLE12=The Drifters - Some Kind Of Wonderful
TTITLE13=The Shirelles - Dedicated To The One I Love
TTITLE14=Jackie Wilson - Doggin'  Around
TTITLE15=Solomon Burke - Cry To Me
TTITLE16=The Chi-Lites - Oh Girl
TTITLE17=Chuck Jackson - Any Day Now
TTITLE18=Hank Ballard And The Midnighters - Finger Poppin' Time
TTITLE19=Taj Mahl - Corinna
TTITLE20=The Coasters - Smokey Joe's Cafe
EXTD=
EXTT0=
EXTT1=
EXTT2=
EXTT3=
EXTT4=
EXTT5=
EXTT6=
EXTT7=
EXTT8=
EXTT9=
EXTT10=
EXTT11=
EXTT12=
EXTT13=
EXTT14=
EXTT15=
EXTT16=
EXTT17=
EXTT18=
EXTT19=
EXTT20=
PLAYORDER=
